<svg width="1080" height="1080" viewBox="0 0 1080 1080" fill="none" xmlns="http://www.w3.org/2000/svg">
  <!-- Instagram gradient background -->
  <defs>
    <linearGradient id="instagramGradient" x1="0%" y1="0%" x2="100%" y2="100%">
      <stop offset="0%" style="stop-color:#833AB4;stop-opacity:1" />
      <stop offset="25%" style="stop-color:#E1306C;stop-opacity:1" />
      <stop offset="50%" style="stop-color:#FD1D1D;stop-opacity:1" />
      <stop offset="75%" style="stop-color:#F77737;stop-opacity:1" />
      <stop offset="100%" style="stop-color:#FCAF45;stop-opacity:1" />
    </linearGradient>
  </defs>
  
  <!-- Background -->
  <rect width="1080" height="1080" fill="url(#instagramGradient)"/>
  
  <!-- Main content area -->
  <rect x="40" y="40" width="1000" height="1000" rx="50" fill="white" stroke="#E1E5E9" stroke-width="4"/>
  
  <!-- Instagram logo area -->
  <rect x="80" y="80" width="60" height="60" rx="15" fill="url(#instagramGradient)"/>
  <text x="110" y="120" text-anchor="middle" fill="white" font-family="Arial, sans-serif" font-size="24" font-weight="bold">📷</text>
  
  <!-- Title -->
  <text x="200" y="130" fill="#333" font-family="Arial, sans-serif" font-size="36" font-weight="bold">Fit Forge</text>
  <text x="200" y="170" fill="#666" font-family="Arial, sans-serif" font-size="18">@fitforge • Fitness Journey</text>
  
  <!-- Main workout image placeholder -->
  <rect x="80" y="220" width="920" height="500" rx="20" fill="#F8F9FA" stroke="#E1E5E9" stroke-width="2"/>
  
  <!-- Gym scene -->
  <g transform="translate(200, 300)">
    <!-- Person working out -->
    <circle cx="100" cy="100" r="40" fill="#E1306C"/>
    <rect x="80" y="140" width="40" height="60" rx="20" fill="#E1306C"/>
    <rect x="70" y="200" width="20" height="40" rx="10" fill="#E1306C"/>
    <rect x="110" y="200" width="20" height="40" rx="10" fill="#E1306C"/>
    
    <!-- Dumbbell -->
    <rect x="50" y="120" width="80" height="15" rx="7.5" fill="#833AB4"/>
    <rect x="40" y="100" width="15" height="50" rx="7.5" fill="#833AB4"/>
    <rect x="115" y="100" width="15" height="50" rx="7.5" fill="#833AB4"/>
  </g>
  
  <g transform="translate(500, 300)">
    <!-- Barbell -->
    <rect x="0" y="0" width="120" height="12" rx="6" fill="#F77737"/>
    <rect x="-10" y="-20" width="15" height="50" rx="7.5" fill="#F77737"/>
    <rect x="115" y="-20" width="15" height="50" rx="7.5" fill="#F77737"/>
  </g>
  
  <g transform="translate(700, 350)">
    <!-- Kettlebell -->
    <circle cx="50" cy="50" r="35" fill="#FCAF45"/>
    <rect x="47" y="15" width="6" height="15" rx="3" fill="#FCAF45"/>
  </g>
  
  <!-- Workout title -->
  <text x="80" y="780" fill="#333" font-family="Arial, sans-serif" font-size="32" font-weight="bold">💪 Today's Workout Complete!</text>
  
  <!-- Stats grid -->
  <rect x="80" y="820" width="200" height="120" rx="15" fill="#F8F9FA" stroke="#E1E5E9" stroke-width="2"/>
  <text x="180" y="850" text-anchor="middle" fill="#E1306C" font-family="Arial, sans-serif" font-size="24" font-weight="bold">45</text>
  <text x="180" y="880" text-anchor="middle" fill="#666" font-family="Arial, sans-serif" font-size="14">Minutes</text>
  <text x="180" y="920" text-anchor="middle" fill="#666" font-family="Arial, sans-serif" font-size="14">Workout Time</text>
  
  <rect x="300" y="820" width="200" height="120" rx="15" fill="#F8F9FA" stroke="#E1E5E9" stroke-width="2"/>
  <text x="400" y="850" text-anchor="middle" fill="#833AB4" font-family="Arial, sans-serif" font-size="24" font-weight="bold">7</text>
  <text x="400" y="880" text-anchor="middle" fill="#666" font-family="Arial, sans-serif" font-size="14">Day Streak</text>
  <text x="400" y="920" text-anchor="middle" fill="#666" font-family="Arial, sans-serif" font-size="14">Consistency</text>
  
  <rect x="520" y="820" width="200" height="120" rx="15" fill="#F8F9FA" stroke="#E1E5E9" stroke-width="2"/>
  <text x="620" y="850" text-anchor="middle" fill="#F77737" font-family="Arial, sans-serif" font-size="24" font-weight="bold">2.1k</text>
  <text x="620" y="880" text-anchor="middle" fill="#666" font-family="Arial, sans-serif" font-size="14">Calories</text>
  <text x="620" y="920" text-anchor="middle" fill="#666" font-family="Arial, sans-serif" font-size="14">Burned</text>
  
  <rect x="740" y="820" width="200" height="120" rx="15" fill="#F8F9FA" stroke="#E1E5E9" stroke-width="2"/>
  <text x="840" y="850" text-anchor="middle" fill="#FCAF45" font-family="Arial, sans-serif" font-size="24" font-weight="bold">85%</text>
  <text x="840" y="880" text-anchor="middle" fill="#666" font-family="Arial, sans-serif" font-size="14">Goal</text>
  <text x="840" y="920" text-anchor="middle" fill="#666" font-family="Arial, sans-serif" font-size="14">Achieved</text>
  
  <!-- Bottom section -->
  <text x="80" y="980" fill="#333" font-family="Arial, sans-serif" font-size="20" font-weight="bold">Keep pushing your limits! 🔥</text>
  <text x="80" y="1010" fill="#666" font-family="Arial, sans-serif" font-size="16">Track your progress with Fit Forge</text>
  
  <!-- Hashtags -->
  <text x="80" y="1050" fill="#E1306C" font-family="Arial, sans-serif" font-size="16" font-weight="bold">#FitForge #FitnessJourney #WorkoutMotivation #Gains #FitnessGoals</text>
</svg>
